<?xml version="1.0" standalone="no"?>
<!DOCTYPE svg PUBLIC "-//W3C//DTD SVG 20010904//EN"
 "http://www.w3.org/TR/2001/REC-SVG-20010904/DTD/svg10.dtd">
<svg version="1.0" xmlns="http://www.w3.org/2000/svg"
 width="245.000000pt" height="245.000000pt" viewBox="0 0 245.000000 245.000000"
 preserveAspectRatio="xMidYMid meet">
<metadata>
Created by potrace 1.14, written by Peter Selinger 2001-2017
</metadata>
<g transform="translate(0.000000,245.000000) scale(0.100000,-0.100000)"
fill="#000000" stroke="none">
<path d="M221 1808 c-13 -34 -3 -47 37 -50 l37 -3 1 -153 c1 -85 6 -158 11
-163 16 -16 193 -48 201 -35 4 6 7 83 8 171 1 88 2 166 3 173 0 7 15 12 36 12
34 0 38 3 38 35 0 8 -1 20 -2 25 -1 6 -69 10 -181 10 -178 0 -181 0 -189 -22z"/>
<path d="M1026 1821 c-3 -5 -5 -21 -4 -35 2 -23 7 -26 40 -26 l38 0 0 -215 c0
-164 3 -217 13 -220 20 -6 180 -13 194 -8 10 4 13 54 13 219 l0 214 24 6 c14
3 30 3 36 -1 15 -9 30 36 18 58 -8 15 -27 17 -188 17 -98 0 -181 -4 -184 -9z"/>
<path d="M1746 1811 c-4 -14 -2 -62 2 -83 1 -4 17 -8 35 -10 l32 -3 5 -190 c3
-117 9 -190 15 -190 6 0 36 4 68 8 49 7 57 11 58 30 0 12 1 93 2 179 0 103 4
159 11 161 6 2 93 5 194 5 200 1 225 7 238 57 14 55 22 54 -330 53 -293 0
-326 -2 -330 -17z"/>
<path d="M20 1500 c-21 -13 0 -27 150 -101 69 -35 127 -64 129 -65 5 -4 4
-624 -1 -629 -2 -2 -19 -5 -36 -7 -25 -2 -34 -8 -38 -25 -12 -45 3 -48 192
-48 170 0 177 1 184 21 11 28 -1 44 -36 48 -16 2 -32 4 -36 5 -8 1 -12 561 -4
561 1 0 48 -11 102 -24 54 -13 119 -27 144 -31 25 -4 52 -9 61 -10 40 -8 89
-14 154 -21 39 -3 77 -8 85 -9 8 -2 18 -4 21 -4 7 -1 8 -439 1 -458 -2 -7 -19
-13 -36 -13 -41 0 -44 -3 -38 -39 l4 -29 183 -1 c192 -1 207 2 201 44 -2 15
-12 21 -39 23 -21 2 -37 9 -37 15 -3 53 0 450 2 452 2 2 68 6 148 9 80 3 156
8 170 10 14 3 45 7 70 10 25 3 60 9 77 12 l33 6 2 -258 3 -258 68 -1 c40 -1
68 3 68 9 1 6 2 128 3 271 l1 260 105 36 c58 19 138 53 179 74 77 41 181 127
181 151 0 19 -6 18 -53 -15 -93 -63 -323 -136 -525 -166 -168 -25 -240 -30
-482 -30 -246 0 -336 5 -510 31 -167 24 -190 28 -285 49 -38 9 -83 18 -100 21
-78 14 -401 106 -433 123 -11 6 -24 6 -32 1z"/>
</g>
</svg>
