<svg xmlns="http://www.w3.org/2000/svg" viewBox="0 0 343.78 49.87"><defs><style>.cls-1,.cls-6{fill:#572a0b;}.cls-2{fill:#f19817;}.cls-3{fill:#f7941c;}.cls-4,.cls-5{fill:#f6951c;}.cls-5,.cls-6{font-size:27.74px;font-family:Poppins-Medium, Poppins;font-weight:500;}</style></defs><g id="Layer_2" data-name="Layer 2"><g id="Layer_1-2" data-name="Layer 1"><path class="cls-1" d="M12.07,20.34l-1.92-.86c-.71-.3-1.43-.59-2.14-.92s-1.4-.68-2.08-1-1.24-.65-1.85-1c-.84-.48-1.65-1-2.49-1.45a12.24,12.24,0,0,1-1.38-.86.42.42,0,0,1-.16-.57.47.47,0,0,1,.2-.17.5.5,0,0,1,.34,0c.47.14.94.3,1.41.47.92.31,1.84.64,2.77.94s1.79.54,2.68.81l2.34.71c.62.19,1.25.38,1.88.55,1.29.34,2.57.69,3.88,1s2.89.68,4.34,1c1,.24,2.05.47,3.08.69s1.9.38,2.86.56l.75.16,1.17.21c.82.14,1.64.3,2.46.43l3.11.47c1.39.19,2.78.38,4.17.55s2.6.28,3.9.42c.49.05,1,.11,1.48.15,1.32.12,2.64.25,4,.34s2.57.13,3.86.19c3.5.16,7,.13,10.51.05,1.68,0,3.36-.13,5-.24,1.44-.09,2.88-.22,4.32-.37s2.87-.31,4.3-.51c1-.13,2-.33,2.93-.5.47-.08.94-.14,1.4-.23s.66-.15,1-.22c.83-.17,1.67-.33,2.5-.52.56-.13,1.11-.3,1.67-.44,1.5-.36,3-.82,4.45-1.32.68-.23,1.35-.49,2-.74l.84-.29c1-.37,2-.69,3-1.13a23.61,23.61,0,0,0,3.56-1.86c.51-.36,1-.73,1.51-1.11a.53.53,0,0,1,.55-.11.34.34,0,0,1,.22.43v0a1.65,1.65,0,0,1-.22.36,21.76,21.76,0,0,1-1.92,2,30.68,30.68,0,0,1-2.61,2.06,16,16,0,0,1-1.58,1c-.6.34-1.25.64-1.85,1-1,.56-2,1-3,1.42a28.85,28.85,0,0,1-3.46,1.3L82,24.42c-.17,0-.34.07-.52.11l-.48.14a1.92,1.92,0,0,0-.08.79V45.09c0,.54,0,1.08,0,1.62s-.1.58-.56.58h-3l-1.84,0a.43.43,0,0,1-.47-.39v-.06c0-.3,0-.62,0-.93V26.37c0-.12,0-.24,0-.36a.71.71,0,0,0-.2,0c-.7.12-1.41.26-2.11.36-1.22.17-2.43.31-3.65.46-.85.11-1.69.22-2.54.3s-1.79.15-2.66.21l-2,.15c-.59,0-1.19.08-1.79.1l-5.16.11c-.73,0-.73,0-.73.77V46.31a1.19,1.19,0,0,0,.11.67,2.15,2.15,0,0,0,.87.11l1.84,0c.39,0,.5.1.51.52,0,.59,0,1.2,0,1.81,0,.3-.15.44-.46.45H42.18a.37.37,0,0,1-.38-.34v-2c0-.24.11-.33.35-.34h2.38a.74.74,0,0,0,.54-.12,2.11,2.11,0,0,0,.07-.83V28.46c0-1.08,0-1-.93-1.06-1.71-.16-3.43-.3-5.14-.49-1.42-.15-2.83-.39-4.24-.57s-3.09-.51-4.63-.77c-1.1-.18-2.18-.44-3.26-.7-.63-.15-1.28-.24-1.92-.4-.89-.22-1.76-.48-2.64-.71l-1-.26-.33,0c0,.41,0,.78,0,1.14V46.38c0,.18,0,.37,0,.51a.45.45,0,0,0,.45.19h2.14c.72,0,.77,0,.77.75,0,.5,0,1,0,1.49s-.11.52-.55.52H10.14c-.32,0-.64,0-1,0s-.44-.15-.44-.46V47.66c0-.44.11-.55.54-.56h1.13c.43,0,.87,0,1.3,0,.26,0,.35-.12.37-.4v-.43q0-8.73,0-17.45,0-3.21,0-6.44c0-.35,0-.71,0-1.06A6.08,6.08,0,0,0,12.07,20.34Z"/><path class="cls-2" d="M75.64,20.54l-.17-.07a.74.74,0,0,1-.43-.79c0-1,0-2,0-2.94V5.43c0-.77,0-.79-.78-.76a4.76,4.76,0,0,1-1.64-.14.85.85,0,0,1-.75-1c0-.81,0-1.62,0-2.43A1.13,1.13,0,0,1,73.08,0l.16,0c.49,0,1,.06,1.49.06H95.81A9.42,9.42,0,0,0,96.87,0a7.06,7.06,0,0,1,1.89.13,1.06,1.06,0,0,1,.34.12.6.6,0,0,1,.34.46,2.66,2.66,0,0,1-.39,2.19,4.48,4.48,0,0,1-1.41,1.33,2,2,0,0,1-.9.25,20.52,20.52,0,0,1-2.07.12H82a3.31,3.31,0,0,0-.7.06c-.25,0-.32.17-.34.44V17.75c0,.46,0,.92,0,1.38s-.06.52-.43.62-.47.08-.7.11c-.46.06-.9.09-1.36.19a10.85,10.85,0,0,1-1.7.23A2.48,2.48,0,0,0,75.64,20.54Z"/><path class="cls-3" d="M54.16,11.84V18.9a11.37,11.37,0,0,0,.05,1.75.59.59,0,0,1-.51.67h-.15a11.4,11.4,0,0,0-1.43-.06c-1.67-.11-3.36-.12-5-.18-.43,0-.87,0-1.3-.07s-.58-.2-.62-.67a3.23,3.23,0,0,1,0-.44c.05-1.6,0-3.2,0-4.81s0-3.17,0-4.75V5.52c0-.59,0-1.16.05-1.74a3.23,3.23,0,0,0,0-.44c0-.3-.11-.4-.39-.46a2.81,2.81,0,0,0-.65-.07l-1.71.09a1,1,0,0,1-.3,0,.34.34,0,0,1-.3-.34c0-.63,0-1.25,0-1.88a.55.55,0,0,1,.5-.61h.11c.53,0,1.07,0,1.6,0,.3,0,.6,0,.9,0h7.72c.3,0,.59,0,.89,0,.46,0,.91,0,1.36,0a7.07,7.07,0,0,0,1.72,0L57,0a.5.5,0,0,1,.54.46V.54c0,.59,0,1.2,0,1.81,0,.34-.16.48-.5.49s-.67,0-1,0a5.54,5.54,0,0,0-1.41.06.39.39,0,0,0-.39.39h0c0,.18,0,.37,0,.56v8Z"/><path class="cls-4" d="M21,10.25v7.13c0,.37-.14.5-.49.48a5.12,5.12,0,0,1-1.17-.13c-1-.26-2.09-.45-3.15-.62-.59-.1-1.16-.25-1.74-.37s-1.05-.19-1.57-.3a1.77,1.77,0,0,1-.4-.08.57.57,0,0,1-.39-.57c0-.23,0-.46,0-.68V3.61c0-.15,0-.29,0-.44a.29.29,0,0,0-.28-.27,3,3,0,0,0-.42,0l-1.78,0A3.05,3.05,0,0,1,9,2.83a.39.39,0,0,1-.3-.42c0-.59,0-1.2.07-1.81,0-.34.1-.42.43-.48a3.75,3.75,0,0,1,.47,0c2,0,4,0,5.94,0h5.93c.77,0,1.54,0,2.31,0a.52.52,0,0,1,.54.46.49.49,0,0,1,0,.12V2.34c0,.38-.15.51-.52.52s-.87,0-1.31,0-.75,0-1.13,0S21,3,21,3.32v6.93Z"/><path d="M72.21,5l-.06.06A.56.56,0,0,1,72.1,5l0,0Z"/><text class="cls-5" transform="translate(113 29.96)">Happy</text><text class="cls-6" transform="translate(209.52 30.81)">Furniture</text></g></g></svg>